{
  "version": "0.6.2c",
  "modules": [
    {
      "plugin": "Core",
      "version": "0.6.2c",
      "model": "AudioInterface",
      "params": [],
      "data": {
        "audio": {
          "driver": 7,
          "deviceName": "ASIO4ALL v2",
          "offset": 0,
          "maxChannels": 8,
          "sampleRate": 44100,
          "blockSize": 512
        }
      },
      "pos": [
        125,
        1
      ]
    },
    {
      "plugin": "ImpromptuModular",
      "version": "0.6.17",
      "model": "Clocked",
      "params": [
        {
          "paramId": 0,
          "value": 120.0
        },
        {
          "paramId": 12,
          "value": 0.0
        },
        {
          "paramId": 13,
          "value": 0.0
        },
        {
          "paramId": 18,
          "value": 0.0
        },
        {
          "paramId": 19,
          "value": 0.0
        },
        {
          "paramId": 4,
          "value": 0.0
        },
        {
          "paramId": 8,
          "value": 0.5
        },
        {
          "paramId": 1,
          "value": -2.0
        },
        {
          "paramId": 5,
          "value": 0.0
        },
        {
          "paramId": 9,
          "value": 0.5
        },
        {
          "paramId": 15,
          "value": 0.0
        },
        {
          "paramId": 2,
          "value": 0.0
        },
        {
          "paramId": 6,
          "value": 0.0
        },
        {
          "paramId": 10,
          "value": 0.5
        },
        {
          "paramId": 16,
          "value": 0.0
        },
        {
          "paramId": 3,
          "value": -9.0
        },
        {
          "paramId": 7,
          "value": 0.0
        },
        {
          "paramId": 11,
          "value": 0.645499408
        },
        {
          "paramId": 17,
          "value": 0.0
        }
      ],
      "data": {
        "running": true,
        "panelTheme": 0,
        "expansion": 0,
        "displayDelayNoteMode": true,
        "bpmDetectionMode": false,
        "emitResetOnStopRun": false,
        "ppqn": 4,
        "resetClockOutputsHigh": true
      },
      "pos": [
        2,
        1
      ]
    },
    {
      "plugin": "NYSTHI",
      "version": "0.6.42",
      "model": "Model277",
      "params": [
        {
          "paramId": 0,
          "value": 1.0
        },
        {
          "paramId": 1,
          "value": 0.601000428
        },
        {
          "paramId": 2,
          "value": 0.25
        },
        {
          "paramId": 3,
          "value": 0.25
        },
        {
          "paramId": 5,
          "value": 0.00999999978
        },
        {
          "paramId": 4,
          "value": 0.164022475
        },
        {
          "paramId": 6,
          "value": 1.0
        }
      ],
      "pos": [
        72,
        1
      ]
    },
    {
      "plugin": "Befaco",
      "version": "0.6.0",
      "model": "EvenVCO",
      "params": [
        {
          "paramId": 0,
          "value": -2.0
        },
        {
          "paramId": 1,
          "value": 0.0
        },
        {
          "paramId": 2,
          "value": 0.0
        }
      ],
      "pos": [
        48,
        1
      ]
    },
    {
      "plugin": "NYSTHI",
      "version": "0.6.42",
      "model": "mix4",
      "params": [
        {
          "paramId": 10,
          "value": 0.0
        },
        {
          "paramId": 15,
          "value": 0.0
        },
        {
          "paramId": 0,
          "value": 0.0
        },
        {
          "paramId": 5,
          "value": 0.0
        },
        {
          "paramId": 11,
          "value": 0.0
        },
        {
          "paramId": 16,
          "value": 0.0
        },
        {
          "paramId": 1,
          "value": 0.0
        },
        {
          "paramId": 6,
          "value": 0.0
        },
        {
          "paramId": 12,
          "value": 0.0
        },
        {
          "paramId": 17,
          "value": 0.0
        },
        {
          "paramId": 2,
          "value": 0.0
        },
        {
          "paramId": 7,
          "value": 0.0
        },
        {
          "paramId": 13,
          "value": 0.0
        },
        {
          "paramId": 18,
          "value": 0.0
        },
        {
          "paramId": 3,
          "value": 0.0
        },
        {
          "paramId": 8,
          "value": 0.0
        },
        {
          "paramId": 21,
          "value": 0.0
        },
        {
          "paramId": 20,
          "value": 0.0
        },
        {
          "paramId": 22,
          "value": 0.0
        },
        {
          "paramId": 23,
          "value": 0.0
        }
      ],
      "data": {
        "m_channels": [
          0.296675026,
          0.5,
          false,
          false,
          1.0,
          0.5,
          false,
          false,
          0.800000012,
          0.5,
          false,
          false,
          0.243478701,
          0.5,
          false,
          false
        ],
        "m_master_volume": 0.75,
        "m_master_mute_trig": false,
        "m_low_power": false,
        "m_cvcompatible": false,
        "m_show_post_out": true,
        "m_post_outputs_unaffected_by_solo_mode": false
      },
      "pos": [
        115,
        1
      ]
    },
    {
      "plugin": "Befaco",
      "version": "0.6.0",
      "model": "EvenVCO",
      "params": [
        {
          "paramId": 0,
          "value": 0.0
        },
        {
          "paramId": 1,
          "value": 0.0
        },
        {
          "paramId": 2,
          "value": 0.0
        }
      ],
      "pos": [
        40,
        1
      ]
    },
    {
      "plugin": "NYSTHI",
      "version": "0.6.42",
      "model": "DualSignalDelayer",
      "params": [
        {
          "paramId": 0,
          "value": 0.150000304
        },
        {
          "paramId": 1,
          "value": 0.220968708
        }
      ],
      "pos": [
        38,
        1
      ]
    },
    {
      "plugin": "Befaco",
      "version": "0.6.0",
      "model": "EvenVCO",
      "params": [
        {
          "paramId": 0,
          "value": -4.0
        },
        {
          "paramId": 1,
          "value": -0.335999995
        },
        {
          "paramId": 2,
          "value": 0.0
        }
      ],
      "pos": [
        79,
        1
      ]
    },
    {
      "plugin": "NYSTHI",
      "version": "0.6.42",
      "model": "Model277",
      "params": [
        {
          "paramId": 0,
          "value": 0.564999342
        },
        {
          "paramId": 1,
          "value": 0.471999913
        },
        {
          "paramId": 2,
          "value": 0.25
        },
        {
          "paramId": 3,
          "value": 0.25
        },
        {
          "paramId": 5,
          "value": 0.00999999978
        },
        {
          "paramId": 4,
          "value": 0.144717485
        },
        {
          "paramId": 6,
          "value": 1.0
        }
      ],
      "pos": [
        65,
        1
      ]
    },
    {
      "plugin": "Befaco",
      "version": "0.6.0",
      "model": "EvenVCO",
      "params": [
        {
          "paramId": 0,
          "value": -2.0
        },
        {
          "paramId": 1,
          "value": 0.0
        },
        {
          "paramId": 2,
          "value": 0.0
        }
      ],
      "pos": [
        87,
        1
      ]
    },
    {
      "plugin": "AudibleInstruments",
      "version": "0.6.3",
      "model": "Braids",
      "params": [
        {
          "paramId": 6,
          "value": 0.747000456
        },
        {
          "paramId": 0,
          "value": 0.0
        },
        {
          "paramId": 1,
          "value": -1.90400004
        },
        {
          "paramId": 2,
          "value": 0.0
        },
        {
          "paramId": 3,
          "value": 0.5
        },
        {
          "paramId": 4,
          "value": 0.0
        },
        {
          "paramId": 5,
          "value": 0.5
        }
      ],
      "data": {
        "settings": [
          34,
          0,
          0,
          0,
          0,
          0,
          0,
          0,
          0,
          0,
          0,
          0,
          0,
          0,
          0,
          0,
          0,
          0,
          0,
          0
        ],
        "lowCpu": false
      },
      "pos": [
        22,
        1
      ]
    },
    {
      "plugin": "NYSTHI",
      "version": "0.6.42",
      "model": "AttackSustainRelease4",
      "params": [
        {
          "paramId": 0,
          "value": 0.0
        },
        {
          "paramId": 1,
          "value": 0.100000001
        },
        {
          "paramId": 4,
          "value": 0.5
        },
        {
          "paramId": 3,
          "value": 1.0
        },
        {
          "paramId": 2,
          "value": 0.0
        },
        {
          "paramId": 5,
          "value": 0.0314999893
        },
        {
          "paramId": 22,
          "value": 0.0539999902
        },
        {
          "paramId": 39,
          "value": 0.5
        },
        {
          "paramId": 56,
          "value": 1.0
        },
        {
          "paramId": 73,
          "value": 0.0
        },
        {
          "paramId": 90,
          "value": 0.0
        },
        {
          "paramId": 107,
          "value": 0.0
        },
        {
          "paramId": 124,
          "value": 0.0
        },
        {
          "paramId": 141,
          "value": 0.0
        },
        {
          "paramId": 158,
          "value": 0.0
        },
        {
          "paramId": 6,
          "value": 0.0389999896
        },
        {
          "paramId": 23,
          "value": 0.0834999979
        },
        {
          "paramId": 40,
          "value": 0.5
        },
        {
          "paramId": 57,
          "value": 1.0
        },
        {
          "paramId": 74,
          "value": 0.0
        },
        {
          "paramId": 91,
          "value": 0.0
        },
        {
          "paramId": 108,
          "value": 0.0
        },
        {
          "paramId": 125,
          "value": 0.0
        },
        {
          "paramId": 142,
          "value": 0.0
        },
        {
          "paramId": 159,
          "value": 0.0
        },
        {
          "paramId": 7,
          "value": 0.0
        },
        {
          "paramId": 24,
          "value": 0.0504999943
        },
        {
          "paramId": 41,
          "value": 0.5
        },
        {
          "paramId": 58,
          "value": 1.0
        },
        {
          "paramId": 75,
          "value": 0.0
        },
        {
          "paramId": 92,
          "value": 0.0
        },
        {
          "paramId": 109,
          "value": 0.0
        },
        {
          "paramId": 126,
          "value": 0.0
        },
        {
          "paramId": 143,
          "value": 0.0
        },
        {
          "paramId": 160,
          "value": 0.0
        },
        {
          "paramId": 8,
          "value": 0.202499986
        },
        {
          "paramId": 25,
          "value": 0.178499952
        },
        {
          "paramId": 42,
          "value": 0.5
        },
        {
          "paramId": 59,
          "value": 1.0
        },
        {
          "paramId": 76,
          "value": 0.0
        },
        {
          "paramId": 93,
          "value": 0.0
        },
        {
          "paramId": 110,
          "value": 0.0
        },
        {
          "paramId": 127,
          "value": 0.0
        },
        {
          "paramId": 144,
          "value": 0.0
        },
        {
          "paramId": 161,
          "value": 0.0
        }
      ],
      "data": {
        "m_looped0": false,
        "m_unitysummed0": false,
        "m_armode0": true,
        "m_busy0": false,
        "m_zero0": false,
        "m_looped1": false,
        "m_unitysummed1": false,
        "m_armode1": true,
        "m_busy1": false,
        "m_zero1": false,
        "m_looped2": false,
        "m_unitysummed2": false,
        "m_armode2": true,
        "m_busy2": false,
        "m_zero2": false,
        "m_looped3": false,
        "m_unitysummed3": false,
        "m_armode3": false,
        "m_busy3": false,
        "m_zero3": false,
        "m_looped4": false,
        "m_unitysummed4": false,
        "m_armode4": true,
        "m_busy4": false,
        "m_zero4": false,
        "m_looped5": false,
        "m_unitysummed5": false,
        "m_armode5": true,
        "m_busy5": false,
        "m_zero5": false,
        "m_looped6": false,
        "m_unitysummed6": false,
        "m_armode6": true,
        "m_busy6": false,
        "m_zero6": false,
        "m_looped7": false,
        "m_unitysummed7": false,
        "m_armode7": true,
        "m_busy7": false,
        "m_zero7": false,
        "m_looped8": false,
        "m_unitysummed8": false,
        "m_armode8": true,
        "m_busy8": false,
        "m_zero8": false,
        "m_looped9": false,
        "m_unitysummed9": false,
        "m_armode9": true,
        "m_busy9": false,
        "m_zero9": false,
        "m_looped10": false,
        "m_unitysummed10": false,
        "m_armode10": true,
        "m_busy10": false,
        "m_zero10": false,
        "m_looped11": false,
        "m_unitysummed11": false,
        "m_armode11": true,
        "m_busy11": false,
        "m_zero11": false,
        "m_looped12": false,
        "m_unitysummed12": false,
        "m_armode12": true,
        "m_busy12": false,
        "m_zero12": false,
        "m_looped13": false,
        "m_unitysummed13": false,
        "m_armode13": true,
        "m_busy13": false,
        "m_zero13": false,
        "m_looped14": false,
        "m_unitysummed14": false,
        "m_armode14": true,
        "m_busy14": false,
        "m_zero14": false,
        "m_looped15": false,
        "m_unitysummed15": false,
        "m_armode15": true,
        "m_busy15": false,
        "m_zero15": false
      },
      "pos": [
        56,
        1
      ]
    },
    {
      "plugin": "VultModulesFree",
      "version": "0.6.26",
      "model": "Tangents",
      "params": [
        {
          "paramId": 0,
          "value": 0.59202528
        },
        {
          "paramId": 1,
          "value": 0.499500036
        },
        {
          "paramId": 2,
          "value": 0.156000033
        },
        {
          "paramId": 3,
          "value": 0.0
        },
        {
          "paramId": 4,
          "value": 0.600000024
        },
        {
          "paramId": 5,
          "value": 0.0
        }
      ],
      "pos": [
        95,
        1
      ]
    },
    {
      "plugin": "NYSTHI",
      "version": "0.6.42",
      "model": "PlateVerb",
      "params": [
        {
          "paramId": 0,
          "value": 0.49300009
        },
        {
          "paramId": 1,
          "value": 0.200000003
        },
        {
          "paramId": 2,
          "value": 0.364999861
        },
        {
          "paramId": 7,
          "value": 0.899999976
        },
        {
          "paramId": 8,
          "value": 0.899999976
        },
        {
          "paramId": 9,
          "value": 0.300000012
        },
        {
          "paramId": 10,
          "value": 1.0
        },
        {
          "paramId": 11,
          "value": 0.5
        },
        {
          "paramId": 12,
          "value": 0.0
        }
      ],
      "pos": [
        108,
        1
      ]
    },
    {
      "plugin": "Bogaudio",
      "version": "0.6.16",
      "model": "Bogaudio-LLFO",
      "params": [
        {
          "paramId": 0,
          "value": -4.21200037
        },
        {
          "paramId": 1,
          "value": 0.0
        },
        {
          "paramId": 2,
          "value": 0.0
        },
        {
          "paramId": 3,
          "value": 0.0
        },
        {
          "paramId": 4,
          "value": 1.0
        }
      ],
      "data": {
        "pitch_mode": "compliant"
      },
      "pos": [
        105,
        1
      ]
    }
  ],
  "wires": [
    {
      "color": "#c9b70e",
      "outputModuleId": 1,
      "outputId": 1,
      "inputModuleId": 11,
      "inputId": 39
    },
    {
      "color": "#0c8e15",
      "outputModuleId": 11,
      "outputId": 54,
      "inputModuleId": 2,
      "inputId": 0
    },
    {
      "color": "#0c8e15",
      "outputModuleId": 1,
      "outputId": 1,
      "inputModuleId": 6,
      "inputId": 0
    },
    {
      "color": "#0986ad",
      "outputModuleId": 6,
      "outputId": 0,
      "inputModuleId": 11,
      "inputId": 38
    },
    {
      "color": "#c91847",
      "outputModuleId": 5,
      "outputId": 1,
      "inputModuleId": 11,
      "inputId": 55
    },
    {
      "color": "#0c8e15",
      "outputModuleId": 3,
      "outputId": 1,
      "inputModuleId": 11,
      "inputId": 56
    },
    {
      "color": "#0986ad",
      "outputModuleId": 7,
      "outputId": 0,
      "inputModuleId": 2,
      "inputId": 8
    },
    {
      "color": "#0986ad",
      "outputModuleId": 2,
      "outputId": 0,
      "inputModuleId": 4,
      "inputId": 1
    },
    {
      "color": "#c9b70e",
      "outputModuleId": 2,
      "outputId": 2,
      "inputModuleId": 2,
      "inputId": 1
    },
    {
      "color": "#0986ad",
      "outputModuleId": 2,
      "outputId": 1,
      "inputModuleId": 2,
      "inputId": 2
    },
    {
      "color": "#c9b70e",
      "outputModuleId": 11,
      "outputId": 53,
      "inputModuleId": 8,
      "inputId": 0
    },
    {
      "color": "#c91847",
      "outputModuleId": 8,
      "outputId": 3,
      "inputModuleId": 12,
      "inputId": 2
    },
    {
      "color": "#0986ad",
      "outputModuleId": 8,
      "outputId": 1,
      "inputModuleId": 8,
      "inputId": 2
    },
    {
      "color": "#0c8e15",
      "outputModuleId": 8,
      "outputId": 2,
      "inputModuleId": 8,
      "inputId": 1
    },
    {
      "color": "#c9b70e",
      "outputModuleId": 9,
      "outputId": 0,
      "inputModuleId": 8,
      "inputId": 8
    },
    {
      "color": "#c9b70e",
      "outputModuleId": 1,
      "outputId": 2,
      "inputModuleId": 6,
      "inputId": 1
    },
    {
      "color": "#c91847",
      "outputModuleId": 10,
      "outputId": 0,
      "inputModuleId": 4,
      "inputId": 2
    },
    {
      "color": "#0c8e15",
      "outputModuleId": 6,
      "outputId": 1,
      "inputModuleId": 10,
      "inputId": 0
    },
    {
      "color": "#c91847",
      "outputModuleId": 4,
      "outputId": 0,
      "inputModuleId": 0,
      "inputId": 0
    },
    {
      "color": "#0c8e15",
      "outputModuleId": 4,
      "outputId": 1,
      "inputModuleId": 0,
      "inputId": 1
    },
    {
      "color": "#c91847",
      "outputModuleId": 12,
      "outputId": 0,
      "inputModuleId": 4,
      "inputId": 0
    },
    {
      "color": "#0c8e15",
      "outputModuleId": 4,
      "outputId": 2,
      "inputModuleId": 13,
      "inputId": 0
    },
    {
      "color": "#0986ad",
      "outputModuleId": 13,
      "outputId": 0,
      "inputModuleId": 4,
      "inputId": 3
    },
    {
      "color": "#c9b70e",
      "outputModuleId": 13,
      "outputId": 1,
      "inputModuleId": 4,
      "inputId": 8
    },
    {
      "color": "#0c8e15",
      "outputModuleId": 14,
      "outputId": 0,
      "inputModuleId": 12,
      "inputId": 3
    }
  ]
}